<?xml version="1.0" encoding="UTF-8" standalone="no"?>
<!DOCTYPE svg PUBLIC "-//W3C//DTD SVG 1.1//EN"
 "http://www.w3.org/Graphics/SVG/1.1/DTD/svg11.dtd">
<!-- Generated by graphviz version 7.1.0 (0)
 -->
<!-- Title: snakemake_dag Pages: 1 -->
<svg width="1356pt" height="620pt"
 viewBox="0.00 0.00 1356.00 620.00" xmlns="http://www.w3.org/2000/svg" xmlns:xlink="http://www.w3.org/1999/xlink">
<g id="graph0" class="graph" transform="scale(1 1) rotate(0) translate(4 616)">
<title>snakemake_dag</title>
<polygon fill="white" stroke="none" points="-4,4 -4,-616 1352,-616 1352,4 -4,4"/>
<!-- 0 -->
<g id="node1" class="node">
<title>0</title>
<path fill="none" stroke="#56d86b" stroke-width="2" d="M343,-36C343,-36 313,-36 313,-36 307,-36 301,-30 301,-24 301,-24 301,-12 301,-12 301,-6 307,0 313,0 313,0 343,0 343,0 349,0 355,-6 355,-12 355,-12 355,-24 355,-24 355,-30 349,-36 343,-36"/>
<text text-anchor="middle" x="328" y="-15.5" font-family="sans" font-size="10.00">all</text>
</g>
<!-- 1 -->
<g id="node2" class="node">
<title>1</title>
<path fill="none" stroke="#56d8c9" stroke-width="2" d="M367,-108C367,-108 289,-108 289,-108 283,-108 277,-102 277,-96 277,-96 277,-84 277,-84 277,-78 283,-72 289,-72 289,-72 367,-72 367,-72 373,-72 379,-78 379,-84 379,-84 379,-96 379,-96 379,-102 373,-108 367,-108"/>
<text text-anchor="middle" x="328" y="-87.5" font-family="sans" font-size="10.00">output_filtered_data</text>
</g>
<!-- 1&#45;&gt;0 -->
<g id="edge1" class="edge">
<title>1&#45;&gt;0</title>
<path fill="none" stroke="grey" stroke-width="2" d="M328,-71.34C328,-64.75 328,-57.08 328,-49.67"/>
<polygon fill="grey" stroke="grey" stroke-width="2" points="331.5,-49.93 328,-39.93 324.5,-49.93 331.5,-49.93"/>
</g>
<!-- 2 -->
<g id="node3" class="node">
<title>2</title>
<path fill="none" stroke="#b6d856" stroke-width="2" d="M686.5,-612C686.5,-612 627.5,-612 627.5,-612 621.5,-612 615.5,-606 615.5,-600 615.5,-600 615.5,-588 615.5,-588 615.5,-582 621.5,-576 627.5,-576 627.5,-576 686.5,-576 686.5,-576 692.5,-576 698.5,-582 698.5,-588 698.5,-588 698.5,-600 698.5,-600 698.5,-606 692.5,-612 686.5,-612"/>
<text text-anchor="middle" x="657" y="-591.5" font-family="sans" font-size="10.00">create_load_db</text>
</g>
<!-- 2&#45;&gt;1 -->
<g id="edge2" class="edge">
<title>2&#45;&gt;1</title>
<path fill="none" stroke="grey" stroke-width="2" d="M614.65,-592.92C469.35,-591.53 0,-577.25 0,-451 0,-451 0,-451 0,-233 0,-119.51 167.42,-95.7 263.04,-91.36"/>
<polygon fill="grey" stroke="grey" stroke-width="2" points="263.14,-94.86 273,-90.98 262.88,-87.86 263.14,-94.86"/>
</g>
<!-- 3 -->
<g id="node4" class="node">
<title>3</title>
<path fill="none" stroke="#ced856" stroke-width="2" d="M698.5,-180C698.5,-180 615.5,-180 615.5,-180 609.5,-180 603.5,-174 603.5,-168 603.5,-168 603.5,-156 603.5,-156 603.5,-150 609.5,-144 615.5,-144 615.5,-144 698.5,-144 698.5,-144 704.5,-144 710.5,-150 710.5,-156 710.5,-156 710.5,-168 710.5,-168 710.5,-174 704.5,-180 698.5,-180"/>
<text text-anchor="middle" x="657" y="-159.5" font-family="sans" font-size="10.00">import_concatenated</text>
</g>
<!-- 2&#45;&gt;3 -->
<g id="edge5" class="edge">
<title>2&#45;&gt;3</title>
<path fill="none" stroke="grey" stroke-width="2" d="M699.44,-593.37C849.78,-593.55 1348,-584.11 1348,-451 1348,-451 1348,-451 1348,-305 1348,-178.48 897.88,-163.69 724.22,-162.69"/>
<polygon fill="grey" stroke="grey" stroke-width="2" points="724.26,-159.19 714.25,-162.65 724.23,-166.19 724.26,-159.19"/>
</g>
<!-- 5 -->
<g id="node6" class="node">
<title>5</title>
<path fill="none" stroke="#56d882" stroke-width="2" d="M1026,-324C1026,-324 938,-324 938,-324 932,-324 926,-318 926,-312 926,-312 926,-300 926,-300 926,-294 932,-288 938,-288 938,-288 1026,-288 1026,-288 1032,-288 1038,-294 1038,-300 1038,-300 1038,-312 1038,-312 1038,-318 1032,-324 1026,-324"/>
<text text-anchor="middle" x="982" y="-303.5" font-family="sans" font-size="10.00">COLLECTION_DATE</text>
</g>
<!-- 2&#45;&gt;5 -->
<g id="edge19" class="edge">
<title>2&#45;&gt;5</title>
<path fill="none" stroke="grey" stroke-width="2" d="M697.67,-575.08C716.55,-565.87 738.79,-553.7 757,-540 841,-476.79 922.3,-381.65 960.05,-334.92"/>
<polygon fill="grey" stroke="grey" stroke-width="2" points="962.65,-337.28 966.17,-327.28 957.18,-332.9 962.65,-337.28"/>
</g>
<!-- 6 -->
<g id="node7" class="node">
<title>6</title>
<path fill="none" stroke="#56d8b1" stroke-width="2" d="M686.5,-396C686.5,-396 627.5,-396 627.5,-396 621.5,-396 615.5,-390 615.5,-384 615.5,-384 615.5,-372 615.5,-372 615.5,-366 621.5,-360 627.5,-360 627.5,-360 686.5,-360 686.5,-360 692.5,-360 698.5,-366 698.5,-372 698.5,-372 698.5,-384 698.5,-384 698.5,-390 692.5,-396 686.5,-396"/>
<text text-anchor="middle" x="657" y="-375.5" font-family="sans" font-size="10.00">load_taxonomy</text>
</g>
<!-- 2&#45;&gt;6 -->
<g id="edge21" class="edge">
<title>2&#45;&gt;6</title>
<path fill="none" stroke="grey" stroke-width="2" d="M662.54,-575.05C665.4,-564.88 668.57,-551.85 670,-540 675.76,-492.35 675.76,-479.65 670,-432 669.1,-424.59 667.53,-416.73 665.78,-409.39"/>
<polygon fill="grey" stroke="grey" stroke-width="2" points="669.21,-408.68 663.31,-399.88 662.44,-410.44 669.21,-408.68"/>
</g>
<!-- 7 -->
<g id="node8" class="node">
<title>7</title>
<path fill="none" stroke="#9fd856" stroke-width="2" d="M648.5,-468C648.5,-468 593.5,-468 593.5,-468 587.5,-468 581.5,-462 581.5,-456 581.5,-456 581.5,-444 581.5,-444 581.5,-438 587.5,-432 593.5,-432 593.5,-432 648.5,-432 648.5,-432 654.5,-432 660.5,-438 660.5,-444 660.5,-444 660.5,-456 660.5,-456 660.5,-462 654.5,-468 648.5,-468"/>
<text text-anchor="middle" x="621" y="-447.5" font-family="sans" font-size="10.00">apply_indexes</text>
</g>
<!-- 2&#45;&gt;7 -->
<g id="edge23" class="edge">
<title>2&#45;&gt;7</title>
<path fill="none" stroke="grey" stroke-width="2" d="M617.93,-575.19C603.97,-566.67 589.77,-555.01 582,-540 571.61,-519.93 582.77,-496.5 595.78,-478.71"/>
<polygon fill="grey" stroke="grey" stroke-width="2" points="598.36,-481.09 601.83,-471.08 592.88,-476.74 598.36,-481.09"/>
</g>
<!-- 8 -->
<g id="node9" class="node">
<title>8</title>
<path fill="none" stroke="#56b1d8" stroke-width="2" d="M648.5,-540C648.5,-540 603.5,-540 603.5,-540 597.5,-540 591.5,-534 591.5,-528 591.5,-528 591.5,-516 591.5,-516 591.5,-510 597.5,-504 603.5,-504 603.5,-504 648.5,-504 648.5,-504 654.5,-504 660.5,-510 660.5,-516 660.5,-516 660.5,-528 660.5,-528 660.5,-534 654.5,-540 648.5,-540"/>
<text text-anchor="middle" x="626" y="-519.5" font-family="sans" font-size="10.00">load_criteria</text>
</g>
<!-- 2&#45;&gt;8 -->
<g id="edge25" class="edge">
<title>2&#45;&gt;8</title>
<path fill="none" stroke="grey" stroke-width="2" d="M649.18,-575.34C646.12,-568.43 642.52,-560.31 639.09,-552.56"/>
<polygon fill="grey" stroke="grey" stroke-width="2" points="642.4,-551.4 635.15,-543.67 636,-554.23 642.4,-551.4"/>
</g>
<!-- 9 -->
<g id="node10" class="node">
<title>9</title>
<path fill="none" stroke="#569ad8" stroke-width="2" d="M1128,-324C1128,-324 1068,-324 1068,-324 1062,-324 1056,-318 1056,-312 1056,-312 1056,-300 1056,-300 1056,-294 1062,-288 1068,-288 1068,-288 1128,-288 1128,-288 1134,-288 1140,-294 1140,-300 1140,-300 1140,-312 1140,-312 1140,-318 1134,-324 1128,-324"/>
<text text-anchor="middle" x="1098" y="-303.5" font-family="sans" font-size="10.00">COLLECTORS</text>
</g>
<!-- 2&#45;&gt;9 -->
<g id="edge26" class="edge">
<title>2&#45;&gt;9</title>
<path fill="none" stroke="grey" stroke-width="2" d="M699.39,-579.57C726.45,-570.2 761.79,-556.45 791,-540 901.41,-477.82 1016.47,-380.13 1068.88,-333.5"/>
<polygon fill="grey" stroke="grey" stroke-width="2" points="1071.13,-336.17 1076.25,-326.89 1066.46,-330.96 1071.13,-336.17"/>
</g>
<!-- 10 -->
<g id="node11" class="node">
<title>10</title>
<path fill="none" stroke="#70d856" stroke-width="2" d="M1213.5,-324C1213.5,-324 1170.5,-324 1170.5,-324 1164.5,-324 1158.5,-318 1158.5,-312 1158.5,-312 1158.5,-300 1158.5,-300 1158.5,-294 1164.5,-288 1170.5,-288 1170.5,-288 1213.5,-288 1213.5,-288 1219.5,-288 1225.5,-294 1225.5,-300 1225.5,-300 1225.5,-312 1225.5,-312 1225.5,-318 1219.5,-324 1213.5,-324"/>
<text text-anchor="middle" x="1192" y="-303.5" font-family="sans" font-size="10.00">COUNTRY</text>
</g>
<!-- 2&#45;&gt;10 -->
<g id="edge28" class="edge">
<title>2&#45;&gt;10</title>
<path fill="none" stroke="grey" stroke-width="2" d="M699.22,-583.74C735.44,-574.98 788.51,-560.17 832,-540 961.02,-480.16 1097.95,-379.89 1159.14,-332.84"/>
<polygon fill="grey" stroke="grey" stroke-width="2" points="1161.16,-335.7 1166.93,-326.82 1156.88,-330.17 1161.16,-335.7"/>
</g>
<!-- 11 -->
<g id="node12" class="node">
<title>11</title>
<path fill="none" stroke="#56d89a" stroke-width="2" d="M1308,-324C1308,-324 1256,-324 1256,-324 1250,-324 1244,-318 1244,-312 1244,-312 1244,-300 1244,-300 1244,-294 1250,-288 1256,-288 1256,-288 1308,-288 1308,-288 1314,-288 1320,-294 1320,-300 1320,-300 1320,-312 1320,-312 1320,-318 1314,-324 1308,-324"/>
<text text-anchor="middle" x="1282" y="-303.5" font-family="sans" font-size="10.00">ID_METHOD</text>
</g>
<!-- 2&#45;&gt;11 -->
<g id="edge30" class="edge">
<title>2&#45;&gt;11</title>
<path fill="none" stroke="grey" stroke-width="2" d="M699.17,-586.64C744.83,-578.91 819.26,-563.88 880,-540 1024.72,-483.11 1179.43,-379.78 1247.03,-332.21"/>
<polygon fill="grey" stroke="grey" stroke-width="2" points="1248.88,-335.19 1255.02,-326.55 1244.84,-329.47 1248.88,-335.19"/>
</g>
<!-- 12 -->
<g id="node13" class="node">
<title>12</title>
<path fill="none" stroke="#88d856" stroke-width="2" d="M90,-324C90,-324 40,-324 40,-324 34,-324 28,-318 28,-312 28,-312 28,-300 28,-300 28,-294 34,-288 40,-288 40,-288 90,-288 90,-288 96,-288 102,-294 102,-300 102,-300 102,-312 102,-312 102,-318 96,-324 90,-324"/>
<text text-anchor="middle" x="65" y="-303.5" font-family="sans" font-size="10.00">IDENTIFIER</text>
</g>
<!-- 2&#45;&gt;12 -->
<g id="edge32" class="edge">
<title>2&#45;&gt;12</title>
<path fill="none" stroke="grey" stroke-width="2" d="M614.93,-590.94C558.58,-586.89 456.48,-574.95 377,-540 258.35,-487.83 142.43,-383.12 91.69,-333.83"/>
<polygon fill="grey" stroke="grey" stroke-width="2" points="94.18,-331.37 84.59,-326.86 89.28,-336.36 94.18,-331.37"/>
</g>
<!-- 13 -->
<g id="node14" class="node">
<title>13</title>
<path fill="none" stroke="#d8cb56" stroke-width="2" d="M188,-324C188,-324 132,-324 132,-324 126,-324 120,-318 120,-312 120,-312 120,-300 120,-300 120,-294 126,-288 132,-288 132,-288 188,-288 188,-288 194,-288 200,-294 200,-300 200,-300 200,-312 200,-312 200,-318 194,-324 188,-324"/>
<text text-anchor="middle" x="160" y="-303.5" font-family="sans" font-size="10.00">INSTITUTION</text>
</g>
<!-- 2&#45;&gt;13 -->
<g id="edge34" class="edge">
<title>2&#45;&gt;13</title>
<path fill="none" stroke="grey" stroke-width="2" d="M614.88,-588.7C569.07,-582.72 494.68,-569.15 437,-540 330.18,-486.02 228.99,-383.4 184.17,-334.39"/>
<polygon fill="grey" stroke="grey" stroke-width="2" points="186.81,-332.09 177.51,-327.02 181.62,-336.79 186.81,-332.09"/>
</g>
<!-- 14 -->
<g id="node15" class="node">
<title>14</title>
<path fill="none" stroke="#5682d8" stroke-width="2" d="M283.5,-324C283.5,-324 230.5,-324 230.5,-324 224.5,-324 218.5,-318 218.5,-312 218.5,-312 218.5,-300 218.5,-300 218.5,-294 224.5,-288 230.5,-288 230.5,-288 283.5,-288 283.5,-288 289.5,-288 295.5,-294 295.5,-300 295.5,-300 295.5,-312 295.5,-312 295.5,-318 289.5,-324 283.5,-324"/>
<text text-anchor="middle" x="257" y="-303.5" font-family="sans" font-size="10.00">MUSEUM_ID</text>
</g>
<!-- 2&#45;&gt;14 -->
<g id="edge36" class="edge">
<title>2&#45;&gt;14</title>
<path fill="none" stroke="grey" stroke-width="2" d="M614.6,-585.53C579.13,-577.94 528.19,-563.84 489,-540 396.93,-483.98 314.48,-383.87 277.54,-335.16"/>
<polygon fill="grey" stroke="grey" stroke-width="2" points="280.36,-333.09 271.56,-327.18 274.75,-337.29 280.36,-333.09"/>
</g>
<!-- 15 -->
<g id="node16" class="node">
<title>15</title>
<path fill="none" stroke="#d89c56" stroke-width="2" d="M412,-324C412,-324 326,-324 326,-324 320,-324 314,-318 314,-312 314,-312 314,-300 314,-300 314,-294 320,-288 326,-288 326,-288 412,-288 412,-288 418,-288 424,-294 424,-300 424,-300 424,-312 424,-312 424,-318 418,-324 412,-324"/>
<text text-anchor="middle" x="369" y="-303.5" font-family="sans" font-size="10.00">PUBLIC_VOUCHER</text>
</g>
<!-- 2&#45;&gt;15 -->
<g id="edge38" class="edge">
<title>2&#45;&gt;15</title>
<path fill="none" stroke="grey" stroke-width="2" d="M614.62,-582C588.26,-573.62 554.79,-560.07 530,-540 458.65,-482.21 405.72,-384.75 382.31,-336.24"/>
<polygon fill="grey" stroke="grey" stroke-width="2" points="385.6,-335.03 378.17,-327.48 379.28,-338.02 385.6,-335.03"/>
</g>
<!-- 16 -->
<g id="node17" class="node">
<title>16</title>
<path fill="none" stroke="#59d856" stroke-width="2" d="M516,-324C516,-324 454,-324 454,-324 448,-324 442,-318 442,-312 442,-312 442,-300 442,-300 442,-294 448,-288 454,-288 454,-288 516,-288 516,-288 522,-288 528,-294 528,-300 528,-300 528,-312 528,-312 528,-318 522,-324 516,-324"/>
<text text-anchor="middle" x="485" y="-303.5" font-family="sans" font-size="10.00">SEQ_QUALITY</text>
</g>
<!-- 2&#45;&gt;16 -->
<g id="edge40" class="edge">
<title>2&#45;&gt;16</title>
<path fill="none" stroke="grey" stroke-width="2" d="M614.6,-579.51C594.3,-571.09 571.16,-558.3 556,-540 506.41,-480.12 491.43,-386.07 486.92,-337.82"/>
<polygon fill="grey" stroke="grey" stroke-width="2" points="490.42,-337.65 486.12,-327.96 483.44,-338.21 490.42,-337.65"/>
</g>
<!-- 17 -->
<g id="node18" class="node">
<title>17</title>
<path fill="none" stroke="#56c9d8" stroke-width="2" d="M588,-324C588,-324 558,-324 558,-324 552,-324 546,-318 546,-312 546,-312 546,-300 546,-300 546,-294 552,-288 558,-288 558,-288 588,-288 588,-288 594,-288 600,-294 600,-300 600,-300 600,-312 600,-312 600,-318 594,-324 588,-324"/>
<text text-anchor="middle" x="573" y="-303.5" font-family="sans" font-size="10.00">SITE</text>
</g>
<!-- 2&#45;&gt;17 -->
<g id="edge42" class="edge">
<title>2&#45;&gt;17</title>
<path fill="none" stroke="grey" stroke-width="2" d="M614.54,-576.22C598.99,-567.79 583.01,-555.92 574,-540 537.54,-475.6 552.68,-384.26 564.29,-337.36"/>
<polygon fill="grey" stroke="grey" stroke-width="2" points="567.65,-338.33 566.8,-327.77 560.88,-336.56 567.65,-338.33"/>
</g>
<!-- 18 -->
<g id="node19" class="node">
<title>18</title>
<path fill="none" stroke="#566bd8" stroke-width="2" d="M683.5,-324C683.5,-324 630.5,-324 630.5,-324 624.5,-324 618.5,-318 618.5,-312 618.5,-312 618.5,-300 618.5,-300 618.5,-294 624.5,-288 630.5,-288 630.5,-288 683.5,-288 683.5,-288 689.5,-288 695.5,-294 695.5,-300 695.5,-300 695.5,-312 695.5,-312 695.5,-318 689.5,-324 683.5,-324"/>
<text text-anchor="middle" x="657" y="-303.5" font-family="sans" font-size="10.00">SPECIES_ID</text>
</g>
<!-- 2&#45;&gt;18 -->
<g id="edge44" class="edge">
<title>2&#45;&gt;18</title>
<path fill="none" stroke="grey" stroke-width="2" d="M667.87,-575.16C690.66,-535.32 738.88,-436.62 708,-360 704.11,-350.34 697.52,-341.46 690.35,-333.83"/>
<polygon fill="grey" stroke="grey" stroke-width="2" points="692.9,-331.44 683.28,-326.99 688.03,-336.46 692.9,-331.44"/>
</g>
<!-- 19 -->
<g id="node20" class="node">
<title>19</title>
<path fill="none" stroke="#d88556" stroke-width="2" d="M802.5,-324C802.5,-324 725.5,-324 725.5,-324 719.5,-324 713.5,-318 713.5,-312 713.5,-312 713.5,-300 713.5,-300 713.5,-294 719.5,-288 725.5,-288 725.5,-288 802.5,-288 802.5,-288 808.5,-288 814.5,-294 814.5,-300 814.5,-300 814.5,-312 814.5,-312 814.5,-318 808.5,-324 802.5,-324"/>
<text text-anchor="middle" x="764" y="-303.5" font-family="sans" font-size="10.00">TYPE_SPECIMEN</text>
</g>
<!-- 2&#45;&gt;19 -->
<g id="edge46" class="edge">
<title>2&#45;&gt;19</title>
<path fill="none" stroke="grey" stroke-width="2" d="M677.95,-575.17C688,-565.64 699.46,-553.17 707,-540 744.68,-474.19 757.6,-384.12 761.91,-337.59"/>
<polygon fill="grey" stroke="grey" stroke-width="2" points="765.38,-338.16 762.72,-327.9 758.4,-337.58 765.38,-338.16"/>
</g>
<!-- 20 -->
<g id="node21" class="node">
<title>20</title>
<path fill="none" stroke="#d8b456" stroke-width="2" d="M895.5,-324C895.5,-324 844.5,-324 844.5,-324 838.5,-324 832.5,-318 832.5,-312 832.5,-312 832.5,-300 832.5,-300 832.5,-294 838.5,-288 844.5,-288 844.5,-288 895.5,-288 895.5,-288 901.5,-288 907.5,-294 907.5,-300 907.5,-300 907.5,-312 907.5,-312 907.5,-318 901.5,-324 895.5,-324"/>
<text text-anchor="middle" x="870" y="-303.5" font-family="sans" font-size="10.00">HAS_IMAGE</text>
</g>
<!-- 2&#45;&gt;20 -->
<g id="edge48" class="edge">
<title>2&#45;&gt;20</title>
<path fill="none" stroke="grey" stroke-width="2" d="M686.44,-575.19C700.38,-565.84 716.65,-553.52 729,-540 787.71,-475.73 834.91,-383.38 856.78,-336.59"/>
<polygon fill="grey" stroke="grey" stroke-width="2" points="859.88,-338.22 860.88,-327.68 853.52,-335.3 859.88,-338.22"/>
</g>
<!-- 3&#45;&gt;1 -->
<g id="edge3" class="edge">
<title>3&#45;&gt;1</title>
<path fill="none" stroke="grey" stroke-width="2" d="M602.67,-149.44C545,-137.17 453.88,-117.78 392.57,-104.74"/>
<polygon fill="grey" stroke="grey" stroke-width="2" points="393.43,-101.34 382.92,-102.69 391.98,-108.19 393.43,-101.34"/>
</g>
<!-- 4 -->
<g id="node5" class="node">
<title>4</title>
<path fill="none" stroke="#d85656" stroke-width="2" d="M680,-252C680,-252 634,-252 634,-252 628,-252 622,-246 622,-240 622,-240 622,-228 622,-228 622,-222 628,-216 634,-216 634,-216 680,-216 680,-216 686,-216 692,-222 692,-228 692,-228 692,-240 692,-240 692,-246 686,-252 680,-252"/>
<text text-anchor="middle" x="657" y="-231.5" font-family="sans" font-size="10.00">concatenate</text>
</g>
<!-- 4&#45;&gt;3 -->
<g id="edge4" class="edge">
<title>4&#45;&gt;3</title>
<path fill="none" stroke="grey" stroke-width="2" d="M657,-215.34C657,-208.75 657,-201.08 657,-193.67"/>
<polygon fill="grey" stroke="grey" stroke-width="2" points="660.5,-193.93 657,-183.93 653.5,-193.93 660.5,-193.93"/>
</g>
<!-- 5&#45;&gt;4 -->
<g id="edge6" class="edge">
<title>5&#45;&gt;4</title>
<path fill="none" stroke="grey" stroke-width="2" d="M925.32,-289.98C922.51,-289.3 919.73,-288.63 917,-288 843.58,-270.93 757.79,-254.03 705.44,-244.05"/>
<polygon fill="grey" stroke="grey" stroke-width="2" points="706.33,-240.66 695.86,-242.23 705.03,-247.54 706.33,-240.66"/>
</g>
<!-- 6&#45;&gt;5 -->
<g id="edge20" class="edge">
<title>6&#45;&gt;5</title>
<path fill="none" stroke="grey" stroke-width="2" d="M699.49,-369.08C748.58,-359.77 832.06,-343.43 912.9,-324.89"/>
<polygon fill="grey" stroke="grey" stroke-width="2" points="913.42,-328.36 922.38,-322.7 911.84,-321.54 913.42,-328.36"/>
</g>
<!-- 6&#45;&gt;9 -->
<g id="edge27" class="edge">
<title>6&#45;&gt;9</title>
<path fill="none" stroke="grey" stroke-width="2" d="M699.31,-373.85C769.15,-368.1 913.02,-353.9 1042.55,-324.81"/>
<polygon fill="grey" stroke="grey" stroke-width="2" points="1043.12,-328.27 1052.08,-322.63 1041.55,-321.45 1043.12,-328.27"/>
</g>
<!-- 6&#45;&gt;10 -->
<g id="edge29" class="edge">
<title>6&#45;&gt;10</title>
<path fill="none" stroke="grey" stroke-width="2" d="M699.46,-376.25C783.41,-373.96 976.41,-364.65 1144.93,-324.62"/>
<polygon fill="grey" stroke="grey" stroke-width="2" points="1145.7,-328.03 1154.59,-322.27 1144.04,-321.23 1145.7,-328.03"/>
</g>
<!-- 6&#45;&gt;11 -->
<g id="edge31" class="edge">
<title>6&#45;&gt;11</title>
<path fill="none" stroke="grey" stroke-width="2" d="M699.27,-376.8C793.58,-375.57 1028.16,-368.2 1230.57,-324.66"/>
<polygon fill="grey" stroke="grey" stroke-width="2" points="1231.27,-328.1 1240.29,-322.53 1229.77,-321.26 1231.27,-328.1"/>
</g>
<!-- 6&#45;&gt;12 -->
<g id="edge33" class="edge">
<title>6&#45;&gt;12</title>
<path fill="none" stroke="grey" stroke-width="2" d="M614.63,-376.57C524.04,-374.88 304.95,-366.61 115.37,-324.68"/>
<polygon fill="grey" stroke="grey" stroke-width="2" points="116.4,-321.33 105.88,-322.54 114.86,-328.16 116.4,-321.33"/>
</g>
<!-- 6&#45;&gt;13 -->
<g id="edge35" class="edge">
<title>6&#45;&gt;13</title>
<path fill="none" stroke="grey" stroke-width="2" d="M614.79,-375.05C536.85,-370.8 365.12,-358.4 213.27,-324.72"/>
<polygon fill="grey" stroke="grey" stroke-width="2" points="214.46,-321.4 203.94,-322.61 212.92,-328.23 214.46,-321.4"/>
</g>
<!-- 6&#45;&gt;14 -->
<g id="edge37" class="edge">
<title>6&#45;&gt;14</title>
<path fill="none" stroke="grey" stroke-width="2" d="M614.77,-373.27C550.51,-367.03 424.3,-352.56 308.93,-324.71"/>
<polygon fill="grey" stroke="grey" stroke-width="2" points="309.86,-321.34 299.31,-322.34 308.18,-328.13 309.86,-321.34"/>
</g>
<!-- 6&#45;&gt;15 -->
<g id="edge39" class="edge">
<title>6&#45;&gt;15</title>
<path fill="none" stroke="grey" stroke-width="2" d="M614.81,-367.38C572.36,-357.62 504.7,-341.85 437.38,-325.07"/>
<polygon fill="grey" stroke="grey" stroke-width="2" points="438.31,-321.69 427.76,-322.66 436.61,-328.48 438.31,-321.69"/>
</g>
<!-- 6&#45;&gt;16 -->
<g id="edge41" class="edge">
<title>6&#45;&gt;16</title>
<path fill="none" stroke="grey" stroke-width="2" d="M614.92,-359.88C592.55,-350.77 564.75,-339.46 540.61,-329.63"/>
<polygon fill="grey" stroke="grey" stroke-width="2" points="542.12,-326.47 531.54,-325.94 539.49,-332.95 542.12,-326.47"/>
</g>
<!-- 6&#45;&gt;17 -->
<g id="edge43" class="edge">
<title>6&#45;&gt;17</title>
<path fill="none" stroke="grey" stroke-width="2" d="M635.8,-359.34C626.23,-351.36 614.72,-341.77 604.19,-332.99"/>
<polygon fill="grey" stroke="grey" stroke-width="2" points="606.73,-330.55 596.81,-326.84 602.25,-335.93 606.73,-330.55"/>
</g>
<!-- 6&#45;&gt;18 -->
<g id="edge45" class="edge">
<title>6&#45;&gt;18</title>
<path fill="none" stroke="grey" stroke-width="2" d="M657,-359.34C657,-352.75 657,-345.08 657,-337.67"/>
<polygon fill="grey" stroke="grey" stroke-width="2" points="660.5,-337.93 657,-327.93 653.5,-337.93 660.5,-337.93"/>
</g>
<!-- 6&#45;&gt;19 -->
<g id="edge47" class="edge">
<title>6&#45;&gt;19</title>
<path fill="none" stroke="grey" stroke-width="2" d="M684.28,-359.15C696.98,-350.84 712.3,-340.82 726.11,-331.79"/>
<polygon fill="grey" stroke="grey" stroke-width="2" points="727.79,-334.87 734.24,-326.47 723.95,-329.02 727.79,-334.87"/>
</g>
<!-- 6&#45;&gt;20 -->
<g id="edge49" class="edge">
<title>6&#45;&gt;20</title>
<path fill="none" stroke="grey" stroke-width="2" d="M699.39,-364.15C730.47,-354.59 773.98,-340.94 819.62,-325.44"/>
<polygon fill="grey" stroke="grey" stroke-width="2" points="820.7,-328.76 829.03,-322.22 818.44,-322.14 820.7,-328.76"/>
</g>
<!-- 7&#45;&gt;6 -->
<g id="edge22" class="edge">
<title>7&#45;&gt;6</title>
<path fill="none" stroke="grey" stroke-width="2" d="M630.08,-431.34C633.68,-424.34 637.91,-416.12 641.94,-408.28"/>
<polygon fill="grey" stroke="grey" stroke-width="2" points="644.95,-410.09 646.41,-399.59 638.72,-406.89 644.95,-410.09"/>
</g>
<!-- 8&#45;&gt;7 -->
<g id="edge24" class="edge">
<title>8&#45;&gt;7</title>
<path fill="none" stroke="grey" stroke-width="2" d="M624.74,-503.34C624.27,-496.75 623.72,-489.08 623.19,-481.67"/>
<polygon fill="grey" stroke="grey" stroke-width="2" points="626.7,-481.65 622.49,-471.92 619.72,-482.15 626.7,-481.65"/>
</g>
<!-- 9&#45;&gt;4 -->
<g id="edge7" class="edge">
<title>9&#45;&gt;4</title>
<path fill="none" stroke="grey" stroke-width="2" d="M1055.03,-290.05C1052.33,-289.31 1049.64,-288.61 1047,-288 925.82,-259.83 779.74,-244.92 705.47,-238.66"/>
<polygon fill="grey" stroke="grey" stroke-width="2" points="706.16,-235.2 695.91,-237.87 705.59,-242.18 706.16,-235.2"/>
</g>
<!-- 10&#45;&gt;4 -->
<g id="edge8" class="edge">
<title>10&#45;&gt;4</title>
<path fill="none" stroke="grey" stroke-width="2" d="M1157.53,-290.45C1154.67,-289.53 1151.81,-288.69 1149,-288 989.93,-248.75 794.82,-238.57 705.64,-235.93"/>
<polygon fill="grey" stroke="grey" stroke-width="2" points="705.88,-232.43 695.79,-235.66 705.69,-239.43 705.88,-232.43"/>
</g>
<!-- 11&#45;&gt;4 -->
<g id="edge9" class="edge">
<title>11&#45;&gt;4</title>
<path fill="none" stroke="grey" stroke-width="2" d="M1243.24,-290.12C1240.48,-289.32 1237.71,-288.6 1235,-288 1042.23,-245.04 805.84,-236.8 705.61,-235.29"/>
<polygon fill="grey" stroke="grey" stroke-width="2" points="705.74,-231.79 695.7,-235.16 705.65,-238.79 705.74,-231.79"/>
</g>
<!-- 12&#45;&gt;4 -->
<g id="edge10" class="edge">
<title>12&#45;&gt;4</title>
<path fill="none" stroke="grey" stroke-width="2" d="M102.92,-290.13C105.63,-289.33 108.34,-288.61 111,-288 291.2,-246.68 512.06,-237.55 608.3,-235.55"/>
<polygon fill="grey" stroke="grey" stroke-width="2" points="608.08,-239.06 618.01,-235.37 607.95,-232.06 608.08,-239.06"/>
</g>
<!-- 13&#45;&gt;4 -->
<g id="edge11" class="edge">
<title>13&#45;&gt;4</title>
<path fill="none" stroke="grey" stroke-width="2" d="M200.98,-290.06C203.68,-289.3 206.37,-288.6 209,-288 351.8,-255.19 525.15,-242.03 608.13,-237.32"/>
<polygon fill="grey" stroke="grey" stroke-width="2" points="608.31,-240.82 618.1,-236.78 607.93,-233.83 608.31,-240.82"/>
</g>
<!-- 14&#45;&gt;4 -->
<g id="edge12" class="edge">
<title>14&#45;&gt;4</title>
<path fill="none" stroke="grey" stroke-width="2" d="M296.37,-290.38C299.27,-289.51 302.17,-288.71 305,-288 411.52,-261.38 539.71,-246.18 608.21,-239.37"/>
<polygon fill="grey" stroke="grey" stroke-width="2" points="608.46,-242.87 618.07,-238.42 607.78,-235.9 608.46,-242.87"/>
</g>
<!-- 15&#45;&gt;4 -->
<g id="edge13" class="edge">
<title>15&#45;&gt;4</title>
<path fill="none" stroke="grey" stroke-width="2" d="M424.82,-290.08C427.59,-289.37 430.32,-288.67 433,-288 493.45,-272.82 563.39,-256.47 608.82,-246"/>
<polygon fill="grey" stroke="grey" stroke-width="2" points="609.32,-249.48 618.29,-243.82 607.76,-242.65 609.32,-249.48"/>
</g>
<!-- 16&#45;&gt;4 -->
<g id="edge14" class="edge">
<title>16&#45;&gt;4</title>
<path fill="none" stroke="grey" stroke-width="2" d="M528.85,-287.15C553.4,-277.16 584.03,-264.7 609.19,-254.46"/>
<polygon fill="grey" stroke="grey" stroke-width="2" points="610.31,-257.78 618.25,-250.77 607.67,-251.3 610.31,-257.78"/>
</g>
<!-- 17&#45;&gt;4 -->
<g id="edge15" class="edge">
<title>17&#45;&gt;4</title>
<path fill="none" stroke="grey" stroke-width="2" d="M594.2,-287.34C603.77,-279.36 615.28,-269.77 625.81,-260.99"/>
<polygon fill="grey" stroke="grey" stroke-width="2" points="627.75,-263.93 633.19,-254.84 623.27,-258.55 627.75,-263.93"/>
</g>
<!-- 18&#45;&gt;4 -->
<g id="edge16" class="edge">
<title>18&#45;&gt;4</title>
<path fill="none" stroke="grey" stroke-width="2" d="M657,-287.34C657,-280.75 657,-273.08 657,-265.67"/>
<polygon fill="grey" stroke="grey" stroke-width="2" points="660.5,-265.93 657,-255.93 653.5,-265.93 660.5,-265.93"/>
</g>
<!-- 19&#45;&gt;4 -->
<g id="edge17" class="edge">
<title>19&#45;&gt;4</title>
<path fill="none" stroke="grey" stroke-width="2" d="M736.72,-287.15C724.02,-278.84 708.7,-268.82 694.89,-259.79"/>
<polygon fill="grey" stroke="grey" stroke-width="2" points="697.05,-257.02 686.76,-254.47 693.21,-262.87 697.05,-257.02"/>
</g>
<!-- 20&#45;&gt;4 -->
<g id="edge18" class="edge">
<title>20&#45;&gt;4</title>
<path fill="none" stroke="grey" stroke-width="2" d="M831.9,-290.76C829.23,-289.81 826.58,-288.88 824,-288 784.2,-274.34 738.65,-259.97 705.19,-249.64"/>
<polygon fill="grey" stroke="grey" stroke-width="2" points="706.47,-246.37 695.89,-246.78 704.42,-253.06 706.47,-246.37"/>
</g>
</g>
</svg>
